<svg id="visual" viewBox="0 0 960 540" width="960" height="540" xmlns="http://www.w3.org/2000/svg" xmlns:xlink="http://www.w3.org/1999/xlink" version="1.1"><g transform="translate(494.1506342543168 249.55752325049875)"><path d="M105.7 -140C142.5 -118.8 181.6 -95.3 199.4 -60.1C217.2 -25 213.7 21.6 202.2 68.4C190.7 115.1 171.2 161.9 136.1 190.2C101.1 218.5 50.5 228.2 12 211.7C-26.5 195.1 -52.9 152.2 -95.7 126.4C-138.5 100.6 -197.6 92 -223.7 61.1C-249.8 30.1 -242.8 -23.3 -216.3 -59.6C-189.8 -95.9 -143.7 -115.1 -104.4 -135.5C-65 -155.9 -32.5 -177.4 1 -178.8C34.5 -180.1 69 -161.3 105.7 -140" fill="#38C2D5"></path></g></svg>