<svg id="visual" viewBox="0 0 900 600" width="900" height="600" xmlns="http://www.w3.org/2000/svg" xmlns:xlink="http://www.w3.org/1999/xlink" version="1.1"><g transform="translate(463.3657754873425 290.018340676867)"><path d="M126.9 -167.3C171.9 -142 221 -114.9 236.5 -75C252 -35.1 234 17.5 215.6 68.8C197.2 120.1 178.5 170.1 142.6 198.7C106.6 227.4 53.3 234.7 0.8 233.6C-51.7 232.5 -103.5 223.1 -147.5 197C-191.6 171 -228 128.5 -249.7 77.4C-271.4 26.4 -278.3 -33.2 -252.6 -72.8C-226.9 -112.4 -168.6 -132 -121 -156.6C-73.5 -181.1 -36.7 -210.6 2.1 -213.5C40.9 -216.4 81.9 -192.7 126.9 -167.3" fill="#38C2D5"></path></g></svg>