<svg id="visual" viewBox="0 0 960 540" width="960" height="540" xmlns="http://www.w3.org/2000/svg" xmlns:xlink="http://www.w3.org/1999/xlink" version="1.1"><rect x="0" y="0" width="960" height="540" fill="#001220"></rect><path d="M0 346L51 346L51 454L101 454L101 475L152 475L152 363L202 363L202 420L253 420L253 448L303 448L303 434L354 434L354 345L404 345L404 322L455 322L455 450L505 450L505 425L556 425L556 411L606 411L606 325L657 325L657 467L707 467L707 370L758 370L758 474L808 474L808 483L859 483L859 421L909 421L909 412L960 412L960 389L960 541L960 541L909 541L909 541L859 541L859 541L808 541L808 541L758 541L758 541L707 541L707 541L657 541L657 541L606 541L606 541L556 541L556 541L505 541L505 541L455 541L455 541L404 541L404 541L354 541L354 541L303 541L303 541L253 541L253 541L202 541L202 541L152 541L152 541L101 541L101 541L51 541L51 541L0 541Z" fill="#735FEF" stroke-linecap="square" stroke-linejoin="miter"></path></svg>