<svg version="1.1" xmlns:xlink="http://www.w3.org/1999/xlink" xmlns="http://www.w3.org/2000/svg" viewBox="0 397.20000000000005 895.2 204.00000000000003" id="visual" style="max-height: 500px" width="895.2" height="204.00000000000003"><rect fill="#001220" height="600" width="900" y="0" x="0"/><path stroke-linejoin="miter" stroke-linecap="square" fill="#38C2D5" d="M0 428L47 428L47 523L95 523L95 542L142 542L142 443L189 443L189 493L237 493L237 518L284 518L284 506L332 506L332 427L379 427L379 406L426 406L426 520L474 520L474 497L521 497L521 485L568 485L568 409L616 409L616 535L663 535L663 449L711 449L711 541L758 541L758 550L805 550L805 494L853 494L853 486L900 486L900 466L900 601L900 601L853 601L853 601L805 601L805 601L758 601L758 601L711 601L711 601L663 601L663 601L616 601L616 601L568 601L568 601L521 601L521 601L474 601L474 601L426 601L426 601L379 601L379 601L332 601L332 601L284 601L284 601L237 601L237 601L189 601L189 601L142 601L142 601L95 601L95 601L47 601L47 601L0 601Z"/></svg>