<svg id="visual" viewBox="0 0 900 600" width="900" height="600" xmlns="http://www.w3.org/2000/svg" xmlns:xlink="http://www.w3.org/1999/xlink" version="1.1"><rect x="0" y="0" width="900" height="600" fill="#001220"></rect><path d="M0 133L41 133L41 202L82 202L82 137L123 137L123 181L164 181L164 87L205 87L205 116L245 116L245 183L286 183L286 87L327 87L327 180L368 180L368 135L409 135L409 202L450 202L450 96L491 96L491 77L532 77L532 195L573 195L573 183L614 183L614 155L655 155L655 184L695 184L695 76L736 76L736 182L777 182L777 110L818 110L818 115L859 115L859 167L900 167L900 185L900 0L900 0L859 0L859 0L818 0L818 0L777 0L777 0L736 0L736 0L695 0L695 0L655 0L655 0L614 0L614 0L573 0L573 0L532 0L532 0L491 0L491 0L450 0L450 0L409 0L409 0L368 0L368 0L327 0L327 0L286 0L286 0L245 0L245 0L205 0L205 0L164 0L164 0L123 0L123 0L82 0L82 0L41 0L41 0L0 0Z" fill="#735FEF" stroke-linecap="square" stroke-linejoin="miter"></path></svg>