<svg id="visual" viewBox="0 0 900 600" width="900" height="600" xmlns="http://www.w3.org/2000/svg" xmlns:xlink="http://www.w3.org/1999/xlink" version="1.1"><g transform="translate(450.60939445870827 302.6615225005527)"><path d="M120.5 -165.6C145.5 -122.7 147.6 -74.5 161.4 -24.3C175.1 25.9 200.6 78.2 192.7 129.6C184.9 181 143.7 231.4 97.5 233.2C51.3 234.9 0 187.9 -51.2 160.6C-102.3 133.3 -153.4 125.7 -177.6 96.4C-201.9 67.1 -199.4 16.2 -181.7 -22.9C-163.9 -62 -130.8 -89.2 -98 -130.7C-65.1 -172.3 -32.6 -228.1 7.6 -237.2C47.8 -246.3 95.6 -208.6 120.5 -165.6" fill="#735FEF"></path></g></svg>