<svg id="visual" viewBox="0 0 960 540" width="960" height="540" xmlns="http://www.w3.org/2000/svg" xmlns:xlink="http://www.w3.org/1999/xlink" version="1.1"><g transform="translate(487.59243668953394 233.3979791603506)"><path d="M115.9 -147.4C154.3 -131.7 192.2 -103.2 203 -66.8C213.7 -30.3 197.2 14.2 181.8 58.2C166.3 102.2 151.9 145.8 121.8 181C91.7 216.2 45.8 243.1 4.8 236.5C-36.2 229.9 -72.5 189.8 -109.3 156.7C-146 123.7 -183.3 97.7 -203.9 60.2C-224.4 22.7 -228.3 -26.4 -209.2 -62.7C-190.2 -99.1 -148.3 -122.8 -109.6 -138.3C-70.9 -153.9 -35.5 -161.3 1.7 -163.6C38.8 -165.9 77.6 -163 115.9 -147.4" fill="#735FEF"></path></g></svg>